<svg id="Layer_1" enable-background="new 0 0 512 512" height="512" viewBox="0 0 512 512" width="512" xmlns="http://www.w3.org/2000/svg"><g><g id="XMLID_588_"><g><g id="XMLID_1029_"><g id="XMLID_1030_"><g id="XMLID_1031_"><g id="XMLID_1032_"><g id="XMLID_1033_"><g id="XMLID_1034_"><g id="XMLID_1035_"><g id="XMLID_1036_"><g id="XMLID_1038_"><g id="XMLID_1053_"><g id="XMLID_1096_"><g id="XMLID_1097_"><g id="XMLID_1111_"><g id="XMLID_1220_"><circle cx="256" cy="256" fill="#ff807d" r="256"/></g></g></g></g></g></g></g></g></g></g></g></g></g></g></g></g><path d="m512 256c0-4.545-.123-9.061-.357-13.548l-118.221-118.221-269.191 269.191 118.221 118.221c4.487.234 9.003.357 13.548.357 141.385 0 256-114.615 256-256z" fill="#fc3e53"/><g><circle cx="256" cy="256" fill="#5eefee" r="190.395"/><path d="m446.39 256c0 105.15-85.24 190.39-190.39 190.39v-380.78c105.15 0 190.39 85.24 190.39 190.39z" fill="#54c9fc"/><g><g><g><path d="m387.213 167.005-20.956 27.973c-31.149-23.782-69.67-36.699-110.258-36.699s-79.108 12.917-110.258 36.699l-20.956-27.973c37.249-27.827 83.016-42.922 131.213-42.922 48.189-.001 93.956 15.095 131.215 42.922z" fill="#fff"/></g><g><g><g><path d="m387.21 167-20.95 27.98c-31.15-23.78-69.67-36.7-110.26-36.7v-34.2c48.19 0 93.95 15.1 131.21 42.92z" fill="#eae1dc"/></g></g></g><g><path d="m345.478 222.727-20.976 28.012c-18.909-15.789-42.883-24.388-68.501-24.388s-49.593 8.598-68.501 24.388l-20.976-28.012c24.988-19.58 56.757-30.572 89.478-30.572 32.719-.001 64.488 10.991 89.476 30.572z" fill="#fff"/></g><g><path d="m345.48 222.73-20.98 28.01c-18.91-15.79-42.88-24.39-68.5-24.39v-34.2c32.72 0 64.49 11 89.48 30.58z" fill="#eae1dc"/></g><g><path d="m304.197 277.833-21.462 28.667c-6.151-8.159-16.148-13.024-26.735-13.024s-20.583 4.866-26.735 13.024l-21.462-28.667c12.778-11.774 30.074-18.555 48.197-18.555s35.419 6.781 48.197 18.555z" fill="#fff"/></g><g><path d="m304.2 277.83-21.47 28.67c-6.15-8.16-16.14-13.02-26.73-13.02v-34.2c18.12 0 35.42 6.78 48.2 18.55z" fill="#eae1dc"/></g></g><circle cx="256" cy="369.667" fill="#fff" r="34"/><path d="m290 369.67c0 18.77-15.22 34-34 34v-68c18.78 0 34 15.22 34 34z" fill="#eae1dc"/></g></g></g></svg>